<?xml version="1.0" standalone="no"?>
<!DOCTYPE svg PUBLIC "-//W3C//DTD SVG 20010904//EN"
 "http://www.w3.org/TR/2001/REC-SVG-20010904/DTD/svg10.dtd">
<svg version="1.0" xmlns="http://www.w3.org/2000/svg"
 width="540.000000pt" height="540.000000pt" viewBox="0 0 540.000000 540.000000"
 preserveAspectRatio="xMidYMid meet">
<metadata>
Created by potrace 1.16, written by Peter Selinger 2001-2019
</metadata>
<g transform="translate(0.000000,540.000000) scale(0.100000,-0.100000)"
fill="#000000" stroke="none">
<path d="M2623 4880 c-73 -13 -173 -53 -236 -93 l-54 -35 -84 10 c-92 10 -176
4 -227 -18 -29 -12 -32 -17 -30 -47 1 -28 -6 -45 -40 -84 -59 -71 -110 -115
-170 -148 -56 -31 -112 -96 -156 -184 -21 -41 -25 -56 -15 -67 6 -8 17 -14 23
-14 6 0 16 -26 23 -59 15 -82 29 -106 163 -286 65 -88 136 -189 157 -224 32
-55 70 -91 108 -104 14 -5 -51 -302 -91 -418 -39 -112 -41 -127 -17 -144 16
-12 15 -18 -6 -91 -13 -44 -24 -95 -25 -114 -1 -29 2 -35 20 -34 21 0 21 -3
26 -285 l6 -286 -44 -102 c-98 -230 -125 -406 -89 -569 17 -76 74 -235 128
-355 14 -31 23 -60 20 -63 -4 -3 -28 -6 -54 -6 -80 0 -279 -39 -340 -66 -80
-36 -101 -62 -107 -127 -12 -143 93 -178 360 -121 122 27 214 33 275 20 l31
-7 -24 -52 c-39 -84 -28 -128 39 -165 26 -14 58 -17 172 -17 158 0 210 13 261
66 26 27 29 37 29 97 l0 67 78 1 78 2 -2 -58 c-3 -101 43 -148 167 -171 91
-17 263 -7 305 17 62 37 71 91 28 175 l-19 37 33 8 c58 13 161 6 252 -16 121
-30 268 -38 317 -17 49 21 72 65 66 129 -6 62 -31 96 -92 126 -57 28 -195 58
-309 67 -45 4 -88 8 -94 10 -9 3 -2 29 24 87 19 46 53 130 73 188 32 88 42
106 64 113 30 10 32 28 15 138 -10 67 -10 70 12 88 l23 19 -62 129 c-34 72
-84 179 -110 239 l-47 110 3 132 c3 131 3 132 26 132 13 0 26 6 29 13 3 8 -3
54 -13 103 -27 132 -66 408 -95 674 -14 129 -27 249 -29 266 -4 29 0 35 44 62
31 20 57 47 75 78 15 27 47 79 71 116 39 60 46 66 75 65 30 -2 32 0 51 65 16
53 25 68 42 70 56 8 81 284 36 403 -20 52 -52 86 -108 114 -59 30 -141 108
-224 216 -75 96 -114 111 -248 94 l-85 -11 -75 40 c-41 22 -100 48 -130 56
-68 20 -208 28 -277 16z m174 -61 c73 -10 181 -47 212 -72 9 -8 52 -10 120 -8
170 5 192 -7 309 -161 60 -79 122 -133 187 -165 82 -40 100 -83 99 -230 l0
-112 -32 -29 c-18 -17 -35 -44 -38 -60 -3 -17 -15 -34 -28 -40 -22 -10 -135
-171 -174 -249 -25 -49 -61 -79 -112 -94 -46 -14 -83 -6 -110 23 -35 38 -27
89 59 382 46 156 51 224 25 318 -20 68 -77 140 -126 157 l-33 12 36 -30 c42
-35 65 -79 79 -151 8 -43 6 -70 -14 -158 -14 -59 -38 -151 -55 -204 -17 -54
-37 -130 -45 -171 -8 -40 -22 -102 -30 -137 -8 -36 -17 -92 -21 -125 -12 -108
-58 -179 -140 -216 -79 -37 -151 -14 -186 59 -18 37 -19 46 -8 53 8 5 19 9 25
9 20 0 95 60 114 93 11 18 20 49 20 69 0 30 -6 42 -32 61 -96 72 -333 51 -368
-33 -24 -58 31 -143 118 -182 23 -10 42 -25 42 -33 0 -32 -35 -84 -70 -104
-86 -48 -183 -9 -238 96 -7 12 -18 68 -26 125 -8 56 -24 130 -35 163 -11 33
-34 114 -51 180 -17 66 -47 181 -66 255 -36 139 -38 166 -11 254 6 22 28 57
48 78 23 25 31 38 21 38 -9 0 -36 -21 -61 -48 -57 -59 -83 -127 -83 -220 0
-68 5 -88 67 -297 48 -162 60 -238 45 -276 -7 -16 -21 -34 -31 -39 -23 -13
-85 -13 -109 0 -11 6 -53 61 -95 123 -41 61 -111 159 -154 217 -109 143 -123
174 -128 279 l-5 86 42 47 c23 26 61 56 85 67 24 11 73 49 108 84 61 62 151
174 159 197 5 15 115 30 224 30 79 0 98 3 135 25 55 31 127 55 193 65 28 4 54
8 58 9 4 0 42 -4 85 -10z m-508 -1319 c3 -98 52 -199 121 -249 46 -33 128 -56
166 -47 15 4 57 -1 96 -11 68 -17 69 -17 133 5 35 12 81 22 102 22 128 0 239
108 258 251 13 92 12 91 43 75 15 -8 44 -17 65 -21 20 -4 37 -12 37 -19 1 -72
99 -852 114 -901 1 -5 -3 -16 -11 -23 -9 -10 -13 -46 -13 -125 0 -158 -17
-432 -36 -565 -14 -108 -36 -219 -104 -542 -74 -348 -78 -525 -14 -652 31 -62
31 -86 -2 -98 -43 -17 -48 -12 -72 65 -18 60 -26 75 -42 75 -25 0 -26 -21 -1
-93 l20 -57 -53 0 -54 0 -7 66 c-6 59 -9 65 -28 62 -20 -3 -22 -8 -18 -67 3
-57 1 -63 -14 -57 -9 3 -23 6 -30 6 -27 0 -75 51 -75 79 0 38 54 361 96 575
20 99 33 192 30 206 -3 14 6 51 20 88 16 39 24 78 22 105 -1 31 10 70 41 148
45 108 47 139 13 139 -27 0 -35 -12 -81 -127 -22 -56 -52 -125 -66 -154 -28
-60 -31 -84 -11 -96 12 -7 9 -18 -15 -66 -33 -67 -36 -92 -13 -105 15 -9 13
-26 -19 -198 -20 -104 -42 -222 -48 -262 -7 -40 -18 -80 -24 -89 -17 -22 -132
-31 -156 -11 -11 9 -24 55 -39 143 -58 350 -165 836 -203 928 -12 28 -22 37
-40 37 -34 0 -39 -20 -17 -77 36 -97 154 -646 204 -953 40 -247 39 -243 17
-271 -21 -27 -79 -49 -130 -49 -35 0 -36 4 -16 40 21 37 19 70 -4 70 -13 0
-25 -16 -41 -55 -21 -52 -24 -55 -57 -55 -31 0 -34 2 -27 23 3 12 15 39 26 60
21 41 18 67 -6 67 -9 0 -30 -31 -50 -76 -32 -68 -37 -74 -55 -65 -33 18 -34
29 -2 98 73 156 64 309 -49 828 -90 410 -110 587 -116 1015 -3 174 -9 296 -15
298 -5 2 -7 7 -5 11 3 4 14 54 26 110 15 76 18 106 10 116 -9 10 -6 34 11 92
12 43 34 138 49 212 l27 135 45 13 c25 7 51 20 59 29 12 14 14 14 20 -3 4 -10
8 -34 8 -53z m-265 -1555 c8 -80 42 -257 100 -530 56 -259 78 -409 74 -512 -2
-61 -6 -77 -17 -75 -8 2 -51 6 -95 9 -65 4 -102 0 -192 -21 -251 -58 -340 -43
-319 54 8 38 33 55 112 80 70 22 259 50 332 50 90 0 90 23 7 218 -100 232
-132 385 -107 514 15 77 81 278 91 278 4 0 10 -29 14 -65z m1530 -184 c-3 -15
1 -65 10 -111 13 -71 14 -86 2 -99 -8 -9 -25 -57 -40 -107 -14 -51 -51 -151
-81 -222 -62 -146 -73 -186 -56 -206 7 -9 47 -16 115 -20 124 -9 266 -36 330
-64 71 -32 87 -101 30 -138 -33 -22 -128 -15 -284 21 -92 22 -131 26 -195 22
-44 -3 -87 -6 -95 -8 -12 -3 -16 13 -18 91 -3 115 14 232 78 530 51 239 90
454 90 500 0 73 13 63 66 -49 39 -83 52 -120 48 -140z"/>
<path d="M2394 4192 c-16 -10 -34 -48 -34 -70 0 -11 9 -31 21 -46 16 -20 29
-26 59 -26 62 0 97 58 69 113 -16 30 -28 37 -69 37 -19 0 -40 -4 -46 -8z"/>
<path d="M2915 4180 c-27 -30 -25 -88 4 -111 32 -26 85 -25 111 3 26 28 26 82
0 108 -27 27 -90 27 -115 0z"/>
</g>
</svg>
